<?xml version="1.0" encoding="utf-8"?>
<!-- Generator: Adobe Illustrator 21.1.0, SVG Export Plug-In . SVG Version: 6.00 Build 0)  -->
<svg version="1.1" id="Capa_1" xmlns="http://www.w3.org/2000/svg" xmlns:xlink="http://www.w3.org/1999/xlink" x="0px" y="0px"
	 viewBox="0 0 429.3 93" style="enable-background:new 0 0 429.3 93;" xml:space="preserve">
<style type="text/css">
	.st0{fill:#031B4E;}
</style>
<path class="st0" d="M252.1,28.8c-5-5-11.2-7.5-18.6-7.5c-7.4,0-13.7,2.5-18.7,7.5c-3.8,3.8-6.2,8.3-7.1,13.6l19.2,0.2h1.2
	c1.3-0.1,1.7-1,1.8-2.3v-3.7c0.1-1.2,1.5-1.6,2.5-0.5l11.7,10c1.2,1.1,1.3,2.1,0,3.3l-11.8,10c-1,0.9-2.4,0.3-2.5-0.8v-4.5
	c0-0.7-0.4-1.4-1.3-1.4h-20.8c0.9,5.1,3.3,9.5,7,13.2c5,5,11.2,7.4,18.7,7.4s13.8-2.4,18.7-7.4c5-5,7.5-11.1,7.5-18.5
	S257.1,33.8,252.1,28.8z"/>
<path class="st0" d="M48.1,62.8c-5.4,6.9-12.6,10.5-21.8,10.5c-7.5,0-13.8-2.4-18.8-7.4S0,54.8,0,47.4s2.5-13.6,7.5-18.5
	c5.1-5,11.3-7.5,18.7-7.5c7.9,0,14.8,3.3,20.8,9.9l-9.7,9.4c-3.1-3.8-6.7-5.8-10.5-5.8c-6.9,0-12.1,5.2-12.1,12.5
	s5.2,12.5,12.1,12.5c4.4,0,8.2-2.1,11.5-6.5L48.1,62.8z"/>
<path class="st0" d="M54.4,57.6c0-5.2,1.9-9.1,5.7-11.9c3.7-2.7,8.4-4.2,14-4.2c3.3,0,6.7,0.5,9.9,1.4v-0.8c0-4.8-3.1-8.1-8.3-8.1
	c-4.6,0-8.1,1.9-10.6,5.8L56,31.1c5.5-6.6,12.4-9.8,20.8-9.8c6.3,0,11.4,1.8,15.6,5.4s6.2,8.3,6.2,14.5v31H84.2V69
	c-3.3,2.9-7.5,4.4-12.6,4.4C61.1,73.3,54.4,66.8,54.4,57.6z M75.1,61.1c3.2,0,6.2-1,8.9-3v-5.7c-2.5-0.6-4.8-0.9-6.7-0.9
	c-5.4,0-8.4,2-8.4,5.2C68.9,59.2,71.5,61.1,75.1,61.1z"/>
<path class="st0" d="M142.2,35.8H140c-8.4,0-13.8,5.5-13.8,15.6v20.8h-14.4V22.5H126V27c2.9-3.4,7-5.2,12.4-5.2c1.6,0,2.9,0,3.8,0.1
	V35.8z"/>
<path class="st0" d="M183.1,67.3c-2.8,2.5-6.9,3.7-12.1,3.7c-7.1,0-13-2.2-17.5-6.7c-4.6-4.5-6.8-10.5-6.8-18.1
	c0-7.7,2.3-13.8,7.1-18.2c4.8-4.5,10.4-6.7,17.2-6.7c4.8,0,8.9,1.6,12.4,4.8v-3.5h14.2v44.5c0,7.7-2.4,14-7.2,18.7
	c-4.8,4.8-11.2,7.2-19.7,7.2c-9.7,0-17.2-3.3-22.6-10l10-9.6c2.9,4.3,7.1,6.4,12.5,6.4c7.6,0,12.5-4.5,12.5-11L183.1,67.3
	L183.1,67.3z M172.4,34.4c-6.1,0-10.9,4.9-10.9,11.9c0,6.9,4.9,11.8,10.9,11.8c6.2,0,11-4.9,11-11.8
	C183.4,39.3,178.5,34.4,172.4,34.4z"/>
<path class="st0" d="M296.7,1.2v13.6h-2.4c-6.4,0-8.9,2.2-8.9,7.2v0.6h10.9v13.3h-10.9v36.4h-14.3V35.8h-6.5V22.5h6.5v-1.4
	C271.1,7.7,279.6,1,293,1L296.7,1.2z"/>
<path class="st0" d="M313.8,0c4.8,0,8.4,3.6,8.4,8.4c0,4.6-3.8,8.3-8.4,8.3s-8.3-3.7-8.3-8.3C305.5,3.7,309.2,0,313.8,0z
	 M306.6,72.2V22.5h14.5v49.6L306.6,72.2L306.6,72.2z"/>
<path class="st0" d="M378.6,22.5L361,72.1h-14.8l-17.6-49.6h15.3l9.7,30.7l9.7-30.7C363.3,22.5,378.6,22.5,378.6,22.5z"/>
<path class="st0" d="M429.2,51h-33.6c0.8,5.4,5,9.1,11.1,9.1c5.1,0,9.1-1.9,12.2-5.8l9.5,8.9c-5.4,6.7-12.5,10-21.3,10
	c-7.6,0-13.8-2.3-18.7-7c-5-4.8-7.4-10.9-7.4-18.6c0-7.6,2.2-13.9,6.8-18.8c4.6-5,10.4-7.5,17.6-7.5c7.6,0,13.5,2.5,17.6,7.6
	s6.3,11,6.3,17.8L429.2,51z M396.3,41.4h17.8c-0.3-4.2-3.6-7.4-8.4-7.4C400.6,34,397.2,37,396.3,41.4z"/>
</svg>
